<svg xmlns="http://www.w3.org/2000/svg" xmlns:xlink="http://www.w3.org/1999/xlink" width="480" zoomAndPan="magnify" viewBox="0 0 360 359.999987" height="480" preserveAspectRatio="xMidYMid meet" version="1.0"><defs><g/><clipPath id="697e88836b"><path d="M 56.519531 186.648438 L 112.769531 186.648438 L 112.769531 251.898438 L 56.519531 251.898438 Z M 56.519531 186.648438 " clip-rule="nonzero"/></clipPath><clipPath id="be6b0f1e49"><path d="M 0.519531 0.648438 L 56.558594 0.648438 L 56.558594 65.898438 L 0.519531 65.898438 Z M 0.519531 0.648438 " clip-rule="nonzero"/></clipPath><clipPath id="d3c12186e4"><rect x="0" width="57" y="0" height="66"/></clipPath><clipPath id="88fb95fd5c"><path d="M 108 100.371094 L 260 100.371094 L 260 251.871094 L 108 251.871094 Z M 108 100.371094 " clip-rule="nonzero"/></clipPath><clipPath id="617c039983"><rect x="0" width="206" y="0" height="31"/></clipPath></defs><g clip-path="url(#697e88836b)"><g transform="matrix(1, 0, 0, 1, 56, 186)"><g clip-path="url(#d3c12186e4)"><g clip-path="url(#be6b0f1e49)"><path fill="#556e56" d="M 42.308594 57.539062 C 42.308594 59.230469 42.304688 60.886719 42.3125 62.542969 C 42.3125 62.871094 42.078125 62.773438 41.921875 62.785156 C 40.277344 62.886719 38.648438 63.089844 37.058594 63.550781 C 36.699219 63.65625 36.335938 63.757812 36.011719 63.949219 C 35.304688 64.359375 35.171875 65.210938 35.714844 65.738281 C 35.933594 65.949219 36.183594 65.988281 36.46875 65.984375 C 40.148438 65.980469 43.828125 65.984375 47.507812 65.980469 C 48.074219 65.980469 48.433594 65.742188 48.566406 65.277344 C 48.699219 64.800781 48.5 64.292969 48.03125 64.019531 C 47.480469 63.699219 46.882812 63.484375 46.277344 63.300781 C 45.820312 63.164062 45.359375 63.042969 44.894531 62.945312 C 44.671875 62.894531 44.589844 62.816406 44.589844 62.578125 C 44.597656 60.601562 44.597656 58.625 44.582031 56.648438 C 44.578125 56.378906 44.742188 56.304688 44.910156 56.207031 C 46.871094 55.074219 48.683594 53.75 50.253906 52.113281 C 53.683594 48.542969 55.863281 44.351562 56.417969 39.394531 C 56.753906 36.367188 56.421875 33.429688 55.253906 30.570312 C 53.933594 27.332031 52.738281 24.039062 51.480469 20.777344 C 51.375 20.503906 51.382812 20.3125 51.652344 20.171875 C 51.691406 20.148438 51.730469 20.125 51.757812 20.09375 C 52.382812 19.394531 53.082031 18.953125 54.078125 18.777344 C 55.328125 18.5625 56.015625 17.378906 55.953125 16.078125 C 55.886719 14.769531 55.023438 13.675781 53.800781 13.425781 C 53.417969 13.347656 53.207031 13.195312 53.082031 12.832031 C 52.894531 12.28125 52.582031 11.789062 52.210938 11.34375 C 52.003906 11.097656 51.980469 10.886719 52.066406 10.574219 C 52.679688 8.273438 52.375 6.109375 51.003906 4.140625 C 50.335938 3.183594 49.449219 2.523438 48.246094 2.375 C 48.132812 2.363281 48.007812 2.324219 47.90625 2.355469 C 47.3125 2.539062 46.949219 2.242188 46.542969 1.847656 C 45.808594 1.140625 44.894531 0.753906 43.867188 0.660156 C 42.511719 0.539062 41.652344 1.136719 41.347656 2.46875 C 41.261719 2.835938 41.203125 2.957031 40.765625 2.882812 C 39.058594 2.589844 37.863281 3.894531 38.257812 5.570312 C 38.554688 6.824219 39.109375 7.957031 39.941406 8.945312 C 40.140625 9.175781 40.140625 9.285156 39.882812 9.460938 C 37.078125 11.355469 35.800781 14.109375 35.5 17.382812 C 35.398438 18.515625 35.417969 19.660156 35.347656 20.796875 C 35.175781 23.539062 33.769531 25.484375 31.421875 26.816406 C 29.882812 27.6875 28.230469 28.289062 26.59375 28.925781 C 24.523438 29.734375 22.492188 30.613281 20.59375 31.789062 C 20.5625 31.808594 20.519531 31.816406 20.449219 31.839844 C 20.34375 30.542969 20.121094 29.289062 19.730469 28.066406 C 18.570312 24.441406 16.546875 21.457031 13.273438 19.417969 C 11.957031 18.59375 10.515625 18.046875 8.972656 17.796875 C 8.5 17.722656 8.023438 17.703125 7.550781 17.773438 C 6.199219 17.980469 5.382812 18.945312 5.289062 20.425781 C 5.261719 20.878906 5.296875 21.324219 5.421875 21.753906 C 5.480469 21.953125 5.433594 22.011719 5.234375 22.011719 C 5.09375 22.011719 4.949219 22.046875 4.808594 22.0625 C 2.867188 22.300781 1.890625 23.65625 2.277344 25.570312 C 2.40625 26.214844 2.671875 26.800781 2.996094 27.417969 C 2.828125 27.464844 2.6875 27.503906 2.542969 27.542969 C 1.171875 27.910156 0.414062 29.023438 0.550781 30.433594 C 0.65625 31.542969 1.050781 32.535156 1.730469 33.40625 C 1.90625 33.628906 1.949219 33.777344 1.792969 34.042969 C 1.292969 34.875 1.457031 35.746094 1.761719 36.589844 C 2.308594 38.117188 3.210938 39.4375 4.222656 40.683594 C 5.382812 42.113281 6.679688 43.402344 8.128906 44.535156 C 8.292969 44.664062 8.414062 44.804688 8.484375 45.007812 C 10.300781 49.992188 13.523438 53.828125 18.011719 56.613281 C 20.824219 58.363281 23.910156 59.347656 27.183594 59.738281 C 27.613281 59.789062 27.765625 59.914062 27.742188 60.359375 C 27.699219 61.050781 27.714844 61.746094 27.738281 62.4375 C 27.746094 62.742188 27.640625 62.820312 27.347656 62.835938 C 25.644531 62.9375 23.960938 63.167969 22.335938 63.71875 C 22.105469 63.796875 21.871094 63.882812 21.664062 64.011719 C 21.222656 64.277344 21.035156 64.78125 21.167969 65.242188 C 21.3125 65.742188 21.65625 65.980469 22.238281 65.980469 C 25.730469 65.984375 29.222656 65.984375 32.714844 65.988281 C 33.300781 65.988281 33.710938 65.710938 33.828125 65.230469 C 33.945312 64.738281 33.703125 64.234375 33.207031 63.972656 C 32.292969 63.488281 31.316406 63.1875 30.316406 62.96875 C 30.078125 62.917969 30.019531 62.820312 30.019531 62.597656 C 30.03125 61.804688 30.023438 61.011719 30.015625 60.214844 C 30.011719 60.019531 30.03125 59.902344 30.285156 59.902344 C 34.421875 59.9375 38.394531 59.132812 42.210938 57.550781 C 42.222656 57.546875 42.238281 57.546875 42.308594 57.539062 Z M 3.503906 35.25 C 3.910156 35.40625 4.277344 35.574219 4.65625 35.6875 C 5.257812 35.871094 5.820312 35.613281 6.023438 35.097656 C 6.230469 34.570312 5.992188 34.054688 5.394531 33.757812 C 4.773438 33.449219 4.191406 33.078125 3.691406 32.589844 C 3.007812 31.910156 2.621094 31.097656 2.617188 30.121094 C 2.617188 30.007812 2.601562 29.898438 2.691406 29.796875 C 3.074219 29.351562 4.34375 29.203125 4.820312 29.554688 C 5.402344 29.980469 6.015625 30.363281 6.710938 30.582031 C 7.28125 30.761719 7.902344 30.46875 8.105469 29.945312 C 8.304688 29.433594 8.074219 28.890625 7.523438 28.613281 C 7.097656 28.398438 6.679688 28.171875 6.304688 27.875 C 5.34375 27.117188 4.550781 26.246094 4.382812 24.960938 C 4.363281 24.816406 4.339844 24.6875 4.449219 24.558594 C 4.847656 24.082031 6.269531 23.777344 6.824219 24.0625 C 7.351562 24.335938 7.882812 24.597656 8.472656 24.699219 C 9.121094 24.816406 9.667969 24.5 9.835938 23.925781 C 10.003906 23.347656 9.746094 22.898438 9.046875 22.664062 C 8.082031 22.332031 7.621094 21.640625 7.550781 20.65625 C 7.507812 20.117188 7.816406 19.796875 8.363281 19.816406 C 8.519531 19.820312 8.679688 19.84375 8.835938 19.878906 C 12.289062 20.648438 14.859375 22.59375 16.535156 25.710938 C 17.832031 28.121094 18.421875 30.710938 18.492188 33.433594 C 18.507812 33.941406 18.660156 34.375 19.132812 34.625 C 19.574219 34.855469 20.007812 34.78125 20.398438 34.496094 C 22.722656 32.820312 25.324219 31.695312 27.972656 30.652344 C 29.605469 30.007812 31.253906 29.394531 32.761719 28.46875 C 34.539062 27.378906 35.960938 25.96875 36.757812 24.003906 C 37.328125 22.601562 37.476562 21.128906 37.46875 19.632812 C 37.460938 18.402344 37.542969 17.1875 37.828125 15.984375 C 38.863281 11.617188 42.8125 9.191406 47.097656 10.3125 C 48.773438 10.75 50.105469 11.667969 50.96875 13.203125 C 51.117188 13.46875 51.144531 13.625 50.785156 13.773438 C 50.023438 14.078125 49.28125 14.4375 48.550781 14.808594 C 48.015625 15.085938 47.796875 15.554688 47.902344 16.054688 C 48 16.539062 48.421875 16.910156 48.96875 16.984375 C 49.640625 17.074219 50.3125 17.164062 50.984375 17.242188 C 51.207031 17.269531 51.3125 17.324219 51.160156 17.558594 C 50.828125 18.0625 50.433594 18.5 49.871094 18.738281 C 48.898438 19.152344 48.644531 19.703125 49.070312 20.683594 C 50.058594 22.957031 50.925781 25.277344 51.800781 27.597656 C 52.472656 29.375 53.300781 31.109375 53.808594 32.933594 C 55.144531 37.71875 54.371094 42.277344 51.898438 46.546875 C 49.828125 50.125 46.851562 52.78125 43.230469 54.722656 C 39.882812 56.523438 36.28125 57.476562 32.5 57.785156 C 28.820312 58.085938 25.222656 57.667969 21.8125 56.238281 C 16.328125 53.933594 12.574219 49.921875 10.480469 44.359375 C 10.328125 43.960938 10.160156 43.601562 9.792969 43.34375 C 8.789062 42.632812 7.886719 41.804688 7.03125 40.921875 C 5.691406 39.53125 4.515625 38.027344 3.765625 36.226562 C 3.640625 35.929688 3.511719 35.625 3.503906 35.25 Z M 50.226562 9.476562 C 49.601562 9.074219 49.019531 8.792969 48.410156 8.578125 C 46.476562 7.898438 44.515625 7.839844 42.523438 8.265625 C 42.355469 8.300781 42.164062 8.421875 42 8.234375 C 41.171875 7.289062 40.605469 6.210938 40.363281 4.925781 C 40.664062 4.964844 40.851562 5.121094 41.027344 5.277344 C 41.414062 5.617188 41.828125 5.714844 42.304688 5.492188 C 42.800781 5.257812 43.101562 4.886719 43.132812 4.324219 C 43.152344 3.949219 43.199219 3.578125 43.285156 3.210938 C 43.351562 2.917969 43.480469 2.8125 43.789062 2.835938 C 44.910156 2.925781 45.570312 3.617188 46.085938 4.523438 C 46.570312 5.375 47.378906 5.402344 47.910156 4.578125 C 48.015625 4.417969 48.097656 4.390625 48.257812 4.449219 C 48.65625 4.605469 49 4.839844 49.253906 5.183594 C 50.183594 6.453125 50.410156 7.882812 50.226562 9.476562 Z M 50.226562 9.476562 " fill-opacity="1" fill-rule="evenodd"/></g><path fill="#556e56" d="M 31.761719 51.351562 C 33.191406 51.328125 34.976562 50.574219 36.628906 49.449219 C 39.648438 47.390625 41.933594 44.644531 43.917969 41.617188 C 44.128906 41.292969 44.347656 40.96875 44.542969 40.632812 C 44.863281 40.070312 44.722656 39.425781 44.222656 39.101562 C 43.714844 38.773438 43.09375 38.914062 42.734375 39.503906 C 41.792969 41.042969 40.792969 42.539062 39.609375 43.90625 C 38.226562 45.503906 36.710938 46.957031 34.902344 48.078125 C 33.988281 48.644531 33 49.03125 31.941406 49.230469 C 29.941406 49.605469 27.996094 48.753906 26.828125 46.992188 C 26.359375 46.289062 26.039062 45.523438 25.8125 44.714844 C 25.78125 44.601562 25.757812 44.488281 25.714844 44.382812 C 25.507812 43.84375 24.988281 43.546875 24.484375 43.667969 C 23.945312 43.804688 23.570312 44.351562 23.699219 44.933594 C 23.921875 45.972656 24.375 46.921875 24.9375 47.816406 C 26.363281 50.085938 28.617188 51.363281 31.761719 51.351562 Z M 31.761719 51.351562 " fill-opacity="1" fill-rule="evenodd"/><path fill="#556e56" d="M 43.703125 14.804688 C 43.714844 15.726562 44.488281 16.472656 45.410156 16.449219 C 46.3125 16.429688 47.046875 15.667969 47.03125 14.765625 C 47.019531 13.835938 46.246094 13.070312 45.347656 13.09375 C 44.414062 13.121094 43.6875 13.878906 43.703125 14.804688 Z M 43.703125 14.804688 " fill-opacity="1" fill-rule="evenodd"/></g></g></g><g clip-path="url(#88fb95fd5c)"><path fill="#556e56" d="M 112.28125 160.585938 C 112.085938 160.667969 111.984375 160.675781 111.953125 160.730469 C 111.722656 161.105469 111.460938 161.472656 111.304688 161.882812 C 111.238281 162.050781 111.445312 162.136719 111.5625 161.988281 C 111.835938 161.640625 112.101562 161.289062 112.363281 160.929688 C 112.386719 160.894531 112.335938 160.800781 112.28125 160.589844 Z M 205.089844 214.523438 C 205.066406 214.324219 204.929688 213.851562 204.972656 213.398438 C 205.023438 212.789062 205.191406 212.199219 205.925781 212.984375 C 206.195312 213.273438 206.554688 213.476562 206.941406 213.15625 C 207.132812 212.992188 207.292969 212.847656 207.550781 213.011719 C 208.078125 213.351562 207.460938 214.640625 208.300781 214.375 C 208.9375 214.175781 209.230469 214.160156 209.6875 214.539062 C 210.714844 215.398438 211.6875 218.894531 211.238281 220.203125 C 211.089844 220.636719 210.824219 220.585938 210.554688 220.328125 C 210.085938 219.875 209.957031 220.152344 209.859375 220.617188 C 209.707031 221.328125 209.207031 221.78125 208.523438 221.648438 C 207.691406 221.484375 206.703125 221.082031 206.617188 220.183594 C 206.523438 219.148438 206.007812 218.511719 205.4375 217.765625 C 204.765625 216.894531 205.148438 215.796875 205.089844 214.527344 Z M 188.28125 148.09375 C 190.796875 146.574219 191.625 144.65625 190.859375 142.40625 C 190.648438 141.785156 189.144531 141.078125 188.257812 141.1875 C 187.136719 141.332031 187.113281 142.265625 187.269531 142.960938 C 187.628906 144.613281 187.457031 146.378906 188.28125 148.09375 Z M 182.863281 148.980469 C 182.863281 147.421875 182.871094 145.863281 182.859375 144.308594 C 182.855469 143.921875 182.785156 143.261719 182.46875 143.285156 C 181.246094 143.382812 181.636719 142.878906 181.976562 142.277344 C 182.246094 141.804688 182.453125 141.300781 182.683594 140.820312 C 182.074219 140.335938 181.382812 140.945312 180.777344 140.496094 C 180.699219 139.863281 181.964844 139.628906 181.421875 138.789062 C 180.429688 138.863281 179.953125 139.5 179.8125 140.304688 C 179.699219 140.96875 179.332031 141.457031 179.03125 141.992188 C 177.359375 144.980469 179.304688 148.609375 182.859375 148.976562 Z M 195.578125 145.46875 C 195.574219 146.945312 195.675781 148.402344 194.445312 149.597656 C 194.015625 150.019531 193.894531 150.660156 193.070312 150.320312 C 192.9375 150.265625 192.640625 150.742188 192.371094 150.878906 C 191.300781 151.414062 190.667969 152.203125 190.125 153.320312 C 189.773438 154.050781 187.992188 153.125 187.519531 154.609375 C 187.351562 155.132812 186.628906 155.257812 186.066406 155.144531 C 183.554688 154.625 180.898438 154.355469 178.855469 152.640625 C 176.179688 150.390625 174.265625 147.644531 174.285156 143.925781 C 174.289062 143.277344 174.503906 142.699219 174.75 142.125 C 175.84375 139.542969 177.558594 137.46875 180.121094 136.304688 C 181.640625 135.613281 182.867188 134.128906 184.769531 134.363281 C 187.03125 134.636719 189.414062 134.566406 191.164062 136.445312 C 191.648438 136.960938 192.148438 137.460938 192.664062 137.941406 C 194.839844 139.953125 195.878906 141.90625 195.578125 145.46875 Z M 167.339844 186.878906 C 167.019531 186.878906 166.625 186.863281 166.234375 186.878906 C 163.449219 187.011719 163.03125 188.171875 164.152344 190.140625 C 164.34375 190.480469 164.261719 190.710938 164.226562 191.003906 C 164.089844 192.085938 164.246094 193.164062 164.085938 194.261719 C 163.90625 195.457031 164.703125 196.140625 165.707031 195.878906 C 167.820312 195.324219 169.90625 194.671875 172.019531 194.113281 C 172.863281 193.890625 173.171875 193.410156 173.085938 192.578125 C 172.90625 190.867188 172.722656 189.152344 172.574219 187.433594 C 172.488281 186.457031 171.964844 186.339844 171.128906 186.5 C 169.902344 186.738281 168.675781 186.984375 167.34375 186.878906 Z M 161.296875 170.980469 C 160.792969 172.882812 161.691406 174.351562 161.644531 175.914062 C 161.636719 176.113281 161.839844 176.492188 161.941406 176.371094 C 163.15625 174.992188 162.964844 176.824219 163.011719 176.96875 C 163.402344 178.078125 163.511719 179.25 163.523438 180.433594 C 163.539062 182.511719 163.867188 182.828125 166.019531 182.664062 C 167.644531 182.539062 169.164062 182.003906 170.722656 181.496094 C 172.511719 180.914062 172.894531 179.976562 172.949219 178.46875 C 173.003906 177.054688 173.070312 175.640625 173.089844 174.222656 C 173.121094 171.480469 172.847656 171.210938 170.167969 171.25 C 169.695312 171.253906 169.203125 171.210938 168.753906 171.324219 C 166.246094 171.945312 163.777344 171.796875 161.292969 170.980469 Z M 144.65625 170.644531 C 144.699219 174.253906 145.53125 177.539062 145.59375 180.90625 C 145.671875 185.371094 146.726562 189.726562 147.273438 194.144531 C 147.347656 194.757812 147.574219 195.359375 147.789062 195.945312 C 148.195312 197.054688 148.886719 197.699219 150.203125 197.769531 C 152.015625 197.863281 153.808594 197.695312 155.613281 197.6875 C 159.609375 197.675781 158.578125 198.066406 159.304688 194.015625 C 159.316406 193.945312 159.285156 193.863281 159.28125 193.785156 C 159.09375 186.75 158.382812 179.710938 159.683594 172.699219 C 159.84375 171.835938 159.222656 170.894531 158.523438 170.910156 C 156.929688 170.9375 155.332031 170.554688 153.777344 170.78125 C 151.984375 171.039062 150.21875 171.382812 148.160156 171.355469 C 149.09375 170.503906 150.097656 170.566406 150.804688 170.136719 C 148.699219 169.070312 146.972656 172.007812 144.65625 170.644531 Z M 180.425781 178.371094 C 180.300781 180.890625 180.175781 183.394531 179.746094 185.882812 C 179.253906 188.714844 179.6875 191.558594 180.148438 194.328125 C 180.414062 195.90625 179.464844 196.945312 179.265625 198.277344 C 179.175781 198.875 178.390625 198.875 177.917969 199.015625 C 176.492188 199.441406 175.042969 199.828125 173.574219 200.0625 C 170.15625 200.613281 166.925781 201.871094 163.550781 202.578125 C 162.222656 202.855469 160.886719 202.703125 159.558594 202.835938 C 159.273438 202.867188 158.816406 202.847656 158.703125 202.675781 C 158.058594 201.6875 156.976562 201.832031 156.25 202.066406 C 154.226562 202.722656 152.175781 202.089844 150.179688 202.453125 C 149.296875 202.617188 148.621094 202.28125 148.125 201.617188 C 146.746094 199.753906 145.367188 197.929688 145.007812 195.488281 C 144.042969 188.960938 142.796875 182.472656 142.746094 175.832031 C 142.734375 174.265625 143.070312 172.722656 142.835938 171.132812 C 142.699219 170.179688 143.210938 169.59375 144.371094 169.257812 C 146.058594 168.769531 147.648438 167.867188 149.28125 167.1875 C 152.179688 165.980469 155.265625 165.296875 158.460938 165.457031 C 160.582031 165.566406 162.703125 165.632812 164.800781 165.234375 C 169.304688 164.386719 173.359375 165.863281 177.226562 167.832031 C 178.953125 168.707031 179.828125 170.535156 180.035156 172.503906 C 180.238281 174.449219 180.300781 176.414062 180.421875 178.371094 Z M 224.710938 224.097656 C 224.835938 224.777344 224.226562 225.457031 224.835938 226.210938 C 225.183594 225.40625 224.859375 224.734375 224.710938 224.097656 Z M 113.28125 158.992188 C 113.359375 158.707031 113.222656 158.535156 112.972656 158.566406 C 112.570312 158.613281 112.296875 158.894531 112.210938 159.269531 C 112.175781 159.433594 112.324219 159.800781 112.421875 159.8125 C 113.023438 159.898438 113.066406 159.332031 113.28125 158.992188 Z M 148.339844 148.769531 C 147.230469 149.382812 147.230469 149.382812 146.59375 150.511719 C 147.269531 149.960938 148.136719 149.757812 148.339844 148.769531 Z M 127.707031 180.746094 L 128.777344 192.296875 C 129.0625 188.402344 128.515625 184.582031 127.707031 180.746094 Z M 199.460938 198.863281 C 199.492188 201.566406 199.671875 203.851562 200.316406 206.078125 C 200.484375 206.65625 200.308594 207.324219 200.324219 207.953125 C 200.402344 211.472656 200.089844 215.011719 200.851562 218.511719 C 201.285156 220.492188 201.523438 222.519531 201.875 224.519531 C 202.617188 228.703125 202.65625 232.953125 203.21875 237.15625 C 203.570312 239.792969 204.066406 240.304688 206.648438 240.035156 C 208.851562 239.808594 211.023438 239.929688 213.222656 240.144531 C 215.320312 240.347656 217.472656 240.277344 219.570312 240.054688 C 222.738281 239.71875 222.738281 239.617188 222.507812 236.324219 C 222.085938 230.226562 221.5 224.132812 221.261719 218.023438 C 220.96875 210.574219 220.960938 203.113281 220.839844 195.65625 C 220.828125 195.105469 220.835938 194.554688 220.824219 194.003906 C 220.816406 193.359375 220.527344 192.953125 219.835938 192.96875 C 217.808594 193.007812 215.824219 192.433594 213.742188 192.851562 C 211.683594 193.265625 209.589844 193.753906 207.441406 193.441406 C 206.4375 193.292969 205.421875 193.160156 204.40625 193.125 C 203.363281 193.089844 202.441406 193.089844 201.929688 191.871094 C 201.632812 191.15625 200.933594 190.824219 200.289062 191.691406 C 200.027344 192.042969 199.648438 192.117188 199.25 192.140625 C 198.058594 192.214844 197.910156 193.027344 197.949219 193.972656 C 198.023438 195.859375 198.070312 197.746094 198.199219 199.625 C 198.242188 200.25 198.515625 200.859375 198.710938 201.566406 C 199.402344 200.804688 198.714844 200.019531 199.457031 198.859375 Z M 113.359375 166.753906 C 113.457031 167.449219 113.402344 168.058594 113.640625 168.519531 C 114.660156 170.507812 116.078125 172.191406 117.945312 173.4375 C 118.882812 174.058594 119.996094 173.902344 120.871094 173.363281 C 122.792969 172.191406 124.480469 170.761719 125.753906 168.820312 C 126.78125 167.261719 127.273438 165.320312 128.722656 164.089844 C 131.726562 161.53125 134.246094 158.496094 137.097656 155.800781 C 144.363281 148.941406 151.449219 141.910156 158.359375 134.691406 C 159.601562 133.394531 161.054688 132.285156 162.367188 131.058594 C 167.179688 126.5625 172.84375 123.058594 177.117188 117.910156 C 180.320312 114.054688 185.105469 114.050781 188.824219 117.128906 C 193.566406 121.054688 198.8125 124.101562 204.488281 126.460938 C 208.828125 128.261719 213.28125 129.882812 217.046875 132.792969 C 221.335938 136.109375 225.296875 139.839844 229.988281 142.628906 C 233.914062 144.964844 236.902344 148.554688 240.894531 150.84375 C 242.117188 151.546875 243.273438 152.601562 243.746094 154.152344 C 244.421875 156.382812 244.824219 156.566406 247.011719 155.898438 C 247.984375 155.597656 248.941406 155.289062 249.679688 154.484375 C 250.773438 153.296875 250.871094 152.511719 249.9375 151.171875 C 248.191406 148.660156 242.386719 143.234375 239.890625 141.070312 C 238.308594 139.699219 236.355469 139.289062 234.695312 138.203125 C 233.925781 137.703125 232.886719 137.230469 232.566406 136.574219 C 231.945312 135.296875 230.949219 134.453125 229.980469 133.597656 C 228.398438 132.199219 226.65625 130.976562 224.980469 129.683594 C 222.34375 127.652344 220.09375 125.027344 216.59375 124.304688 C 216.101562 124.207031 215.679688 123.71875 215.242188 123.386719 C 211.726562 120.691406 207.84375 118.65625 203.789062 116.929688 C 201.964844 116.152344 200.121094 115.230469 198.796875 113.867188 C 197.214844 112.234375 195.441406 111.085938 193.410156 110.332031 C 189.253906 108.792969 185.078125 107.351562 180.554688 107.171875 C 176.757812 107.019531 173.078125 107.15625 169.429688 108.441406 C 166.445312 109.488281 163.929688 111.050781 161.875 113.4375 C 161 114.445312 160.109375 115.46875 159.078125 116.304688 C 156.035156 118.773438 152.9375 121.167969 150.125 123.917969 C 148.671875 125.34375 147.023438 126.570312 145.449219 127.871094 C 140.601562 131.878906 135.738281 135.871094 131.953125 140.972656 C 130.121094 143.441406 128.015625 145.664062 125.796875 147.789062 C 121.574219 151.835938 117.789062 156.234375 115.328125 161.617188 C 114.546875 163.316406 113.816406 165.046875 113.359375 166.753906 Z M 131.386719 201.320312 C 131.480469 201.125 131.582031 200.933594 131.660156 200.730469 C 131.703125 200.636719 131.703125 200.527344 131.71875 200.425781 L 132.90625 202.707031 C 132.90625 204.4375 133.171875 206.15625 133.234375 207.867188 C 133.414062 213.289062 134.011719 218.683594 134.488281 224.070312 C 135.050781 230.410156 135.035156 236.769531 135.566406 243.101562 C 135.695312 244.667969 134.761719 246.746094 136.277344 247.660156 C 137.578125 248.449219 139.5 247.914062 141.148438 247.769531 C 141.226562 247.761719 141.304688 247.753906 141.382812 247.738281 C 149.183594 246.296875 157.066406 245.460938 164.929688 244.480469 C 168.351562 244.054688 171.765625 243.652344 175.160156 242.9375 C 180.449219 241.828125 185.816406 241.15625 191.21875 240.8125 C 193.257812 240.683594 195.285156 240.421875 197.316406 240.246094 C 198.035156 240.183594 198.640625 239.953125 198.402344 239.121094 C 197.371094 235.511719 197.761719 231.777344 197.375 228.113281 C 196.707031 221.785156 196.210938 215.441406 196.167969 209.070312 C 196.15625 207.183594 196.019531 205.304688 195.90625 203.417969 C 195.648438 199.179688 195.472656 194.9375 195.34375 190.695312 C 195.300781 189.289062 195.480469 189.230469 196.742188 190.046875 C 197.0625 190.253906 197.316406 190.265625 197.570312 190.160156 C 199.59375 189.339844 201.710938 188.878906 203.828125 188.351562 C 205.183594 188.015625 206.570312 188.320312 207.882812 187.761719 C 208.554688 187.476562 209.117188 186.839844 210.035156 187.089844 C 211.367188 187.449219 212.710938 187.058594 213.910156 186.5625 C 214.832031 186.179688 215.742188 186.105469 216.660156 186.113281 C 218.304688 186.125 219.953125 186.238281 221.59375 186.390625 C 225.183594 186.726562 227.3125 188.433594 227.792969 191.460938 C 228.035156 193.003906 228.042969 194.589844 228.152344 196.15625 C 228.171875 196.46875 228.179688 196.808594 227.917969 197.03125 C 227.203125 197.632812 227.332031 198.488281 227.375 199.222656 C 227.519531 201.664062 227.035156 204.0625 226.976562 206.492188 C 226.894531 209.777344 226.800781 213.066406 226.105469 216.304688 C 225.789062 217.785156 226.449219 219.289062 226.257812 220.71875 C 225.964844 222.90625 226.371094 225.0625 226.347656 227.226562 C 226.316406 230.539062 227.320312 233.839844 227.679688 237.183594 C 227.910156 239.300781 228.015625 239.414062 230.195312 239.234375 C 233.863281 238.921875 237.519531 238.429688 241.175781 238.023438 C 241.492188 237.988281 241.828125 238.003906 241.96875 237.664062 C 242.800781 235.644531 243.773438 233.578125 243.132812 231.371094 C 242.867188 230.472656 242.648438 229.582031 242.539062 228.667969 C 242.105469 225.183594 241.644531 221.699219 241.320312 218.203125 C 240.878906 213.441406 240.113281 208.710938 240.113281 203.90625 C 240.113281 202.5 240.027344 201.09375 239.816406 199.679688 C 239.269531 196.035156 238.484375 192.433594 238.117188 188.757812 C 237.5625 183.210938 236.890625 177.675781 236.25 172.136719 C 235.847656 168.628906 235.425781 165.113281 235.570312 161.582031 C 235.683594 158.761719 235.355469 156.292969 232.390625 155.003906 C 232.039062 154.851562 231.761719 154.539062 231.453125 154.300781 C 228.707031 152.207031 226.308594 149.675781 223.375 147.824219 C 220.648438 146.09375 218.007812 144.25 215.597656 142.105469 C 213.367188 140.113281 211.085938 138.179688 208.488281 136.691406 C 204.878906 134.617188 201.289062 132.503906 197.542969 130.667969 C 194.011719 128.9375 190.707031 126.789062 187.675781 124.332031 C 186.058594 123.023438 184.242188 121.941406 182.796875 120.414062 C 182.304688 119.898438 181.5625 119.621094 181.179688 120.296875 C 180.011719 122.335938 177.832031 123.230469 176.261719 124.828125 C 173.625 127.515625 170.554688 129.785156 167.601562 132.15625 C 165.148438 134.132812 162.929688 136.398438 160.320312 138.195312 C 159.992188 138.417969 159.746094 138.773438 159.792969 139.195312 C 159.890625 140.078125 159.273438 140.429688 158.675781 140.820312 C 155.921875 142.621094 153.679688 145.019531 151.246094 147.1875 C 149.023438 149.167969 146.902344 151.261719 144.726562 153.292969 C 144.671875 153.34375 144.480469 153.242188 144.464844 153.238281 C 144.101562 152.902344 145.003906 152.59375 144.25 152.21875 C 142.589844 154.152344 140.351562 155.511719 138.652344 157.40625 C 136.242188 160.101562 133.539062 162.480469 130.960938 164.992188 C 129.605469 166.3125 128.386719 167.703125 128.800781 169.839844 C 128.847656 170.074219 128.609375 170.480469 128.382812 170.628906 C 127.453125 171.238281 127.378906 171.28125 128.148438 171.902344 C 128.539062 172.21875 128.550781 172.542969 128.539062 172.894531 C 128.425781 176.835938 129.078125 180.710938 129.488281 184.609375 C 130.066406 190.144531 130.800781 195.667969 131.386719 201.320312 Z M 229.835938 101.65625 C 231.222656 107.214844 230.039062 112.8125 230.058594 118.386719 C 230.066406 119.726562 230.058594 121.058594 230.285156 122.382812 C 230.601562 124.253906 230.4375 124.445312 228.394531 124.359375 C 230.175781 126.035156 231.894531 127.828125 234.050781 128.609375 C 236.789062 129.601562 238.65625 131.640625 240.945312 133.15625 C 241.859375 133.761719 242.765625 134.410156 243.753906 134.851562 C 246.59375 136.109375 249.039062 137.867188 251.214844 140.066406 C 253.644531 142.523438 256.644531 144.453125 258.4375 147.472656 C 259.75 149.671875 260.679688 152.070312 258.902344 154.558594 C 258.089844 155.703125 258.007812 157.195312 256.933594 158.265625 C 255.597656 159.589844 253.976562 160.148438 252.316406 160.875 C 249.78125 161.976562 247.460938 162.414062 245.011719 160.910156 C 244.8125 160.789062 244.574219 160.726562 244.347656 160.664062 C 242.214844 160.066406 241.765625 160.355469 241.949219 162.554688 C 242.453125 168.582031 242.882812 174.613281 243.621094 180.621094 C 244.015625 183.816406 244.125 187.046875 244.355469 190.261719 C 244.367188 190.417969 244.386719 190.578125 244.355469 190.730469 C 243.519531 194.714844 244.414062 198.636719 244.753906 202.578125 C 244.851562 203.742188 244.753906 204.925781 244.730469 206.101562 C 244.644531 210.039062 245.230469 213.9375 245.496094 217.855469 C 245.519531 218.242188 245.667969 218.628906 245.195312 219.296875 C 243.957031 217.222656 244.335938 214.972656 243.984375 212.972656 C 243.628906 210.933594 243.601562 208.8125 243.152344 206.75 C 242.800781 209.941406 242.910156 213.121094 243.21875 216.296875 C 243.515625 219.335938 243.820312 222.375 244.128906 225.414062 C 244.496094 229.050781 244.871094 232.6875 245.234375 236.328125 C 245.289062 236.859375 245.125 237.617188 245.78125 237.738281 C 247.265625 238.003906 246.792969 239.105469 246.804688 239.941406 C 246.816406 240.527344 244.984375 241.921875 244.347656 241.6875 C 241.625 240.6875 239.488281 241.722656 237.410156 243.320312 C 237.09375 243.566406 236.5 243.484375 236.035156 243.511719 C 231.339844 243.796875 226.691406 244.484375 222.050781 245.21875 C 220.097656 245.527344 218.140625 245.574219 216.167969 245.5 C 212.011719 245.347656 207.902344 244.746094 203.777344 244.320312 C 200.550781 243.992188 197.382812 244.539062 194.191406 244.636719 C 191.324219 244.71875 188.496094 245.433594 185.605469 245.109375 C 182.59375 244.777344 179.679688 245.507812 176.78125 246.109375 C 175.765625 246.324219 174.753906 246.199219 173.769531 246.472656 C 172.046875 246.953125 170.238281 246.953125 168.578125 247.875 C 167.261719 248.605469 165.613281 248.558594 164.089844 248.695312 C 160.738281 248.992188 157.472656 249.957031 154.082031 249.917969 C 151.789062 249.894531 149.601562 250.375 147.375 250.972656 C 145.371094 251.507812 143.203125 251.496094 141.101562 251.59375 C 138.59375 251.714844 136.082031 251.730469 133.570312 251.714844 C 132.417969 251.707031 131.523438 251.253906 131.003906 250.039062 C 130.292969 248.359375 129.964844 246.699219 129.832031 244.847656 C 129.277344 236.941406 129.359375 228.996094 128.390625 221.113281 C 128.199219 219.5625 128.160156 217.984375 128.164062 216.421875 C 128.167969 210.453125 127.695312 204.5 127.671875 198.53125 C 127.660156 194.703125 127.085938 190.875 126.726562 187.050781 C 126.320312 182.671875 125.640625 178.3125 125.90625 173.890625 C 125.921875 173.589844 125.894531 173.269531 125.59375 173.023438 C 125.144531 172.832031 124.84375 173.160156 124.664062 173.472656 C 123.605469 175.328125 121.8125 176.058594 119.941406 176.746094 C 119.039062 177.074219 118.285156 177.042969 117.539062 176.484375 C 115.066406 174.640625 112.3125 173.160156 110.714844 170.28125 C 110.035156 169.0625 110.160156 167.691406 109.46875 166.519531 C 108.765625 165.335938 108.871094 166.75 108.382812 166.757812 C 108.335938 166.117188 108.421875 165.402344 108.199219 164.804688 C 107.757812 163.613281 108.214844 162.75 109.085938 162.132812 C 110.082031 161.433594 110.40625 160.457031 110.765625 159.402344 C 111.511719 157.191406 112.628906 155.164062 114.070312 153.324219 C 114.136719 153.511719 114.207031 153.703125 114.277344 153.894531 C 114.457031 153.789062 114.722656 153.726562 114.800781 153.570312 C 114.964844 153.226562 114.75 153.054688 114.398438 153.035156 C 114.75 151.230469 116.214844 150.167969 117.296875 148.902344 C 119.386719 146.46875 121.707031 144.234375 123.851562 141.851562 C 125.191406 140.363281 126.300781 138.679688 127.53125 137.109375 C 128.476562 135.90625 129.492188 134.730469 130.445312 133.527344 C 132.445312 131.003906 134.871094 129.027344 137.617188 127.351562 C 138.632812 126.730469 139.609375 125.925781 140.222656 124.71875 C 141.15625 122.875 143.152344 122.136719 144.753906 121.039062 C 147.023438 119.476562 149 117.566406 150.898438 115.648438 C 152.066406 114.472656 153.589844 113.929688 154.667969 112.730469 C 155.289062 112.035156 156.210938 111.574219 156.738281 110.820312 C 158.679688 108.042969 161.582031 106.410156 164.152344 104.378906 C 164.515625 104.089844 164.921875 103.796875 165.351562 103.667969 C 170.335938 102.148438 175.160156 100.035156 180.597656 100.410156 C 184.589844 100.691406 188.585938 100.753906 192.5 101.738281 C 197.292969 102.945312 201.492188 105.347656 205.484375 108.148438 C 209.152344 110.722656 213.222656 112.617188 216.984375 115.027344 C 217.285156 115.222656 217.613281 115.535156 218.277344 115.109375 C 217.6875 111.535156 217.84375 107.839844 217.851562 104.128906 C 218.164062 103.417969 218.0625 102.824219 218.0625 101.929688 L 218.0625 101.789062 L 218.246094 101.367188 C 218.679688 101.3125 218.496094 101.226562 218.996094 101.226562 L 220.589844 101.074219 L 225.179688 101.085938 C 225.726562 101.253906 226.488281 101.050781 226.992188 101.179688 C 227.320312 101.265625 227.558594 101.195312 227.972656 101.273438 C 228.34375 101.34375 228.429688 101.242188 228.644531 101.355469 C 228.949219 101.519531 229.480469 101.589844 229.839844 101.652344 Z M 229.835938 101.65625 " fill-opacity="1" fill-rule="nonzero"/></g><g transform="matrix(1, 0, 0, 1, 55, 251)"><g clip-path="url(#617c039983)"><g fill="#556e56" fill-opacity="1"><g transform="translate(0.935091, 24.403669)"><g><path d="M 1.828125 -0.703125 L 1.90625 -2.765625 L 1.828125 -3.21875 L 1.828125 -10.734375 L 1.890625 -11.234375 L 1.859375 -11.828125 L 1.90625 -12.78125 L 1.8125 -13.8125 L 1.859375 -14.328125 L 1.8125 -16.28125 L 1.859375 -16.828125 L 2.109375 -17.34375 L 2.65625 -17.59375 L 5.15625 -17.53125 L 5.703125 -17.59375 L 6.234375 -17.3125 L 6.453125 -16.828125 L 6.5 -15.90625 L 6.453125 -15.34375 L 6.4375 -13.390625 L 6.453125 -12.9375 L 6.453125 -12.40625 L 6.484375 -11.859375 L 6.734375 -11.375 L 7.203125 -11.15625 L 8.6875 -11.125 L 9.140625 -11.1875 L 9.671875 -11.125 L 10.65625 -11.234375 L 11.125 -11.15625 L 11.640625 -11.4375 L 11.90625 -11.9375 L 11.9375 -13.890625 L 11.859375 -14.375 L 11.90625 -15.40625 L 11.859375 -15.828125 L 11.890625 -16.78125 L 12.140625 -17.390625 L 12.859375 -17.5625 L 15.75 -17.53125 L 16.25 -17.34375 L 16.484375 -16.8125 L 16.453125 -4.203125 L 16.53125 -3.796875 L 16.453125 -2.984375 L 16.5 -0.703125 L 16.203125 -0.28125 L 15.734375 0.046875 L 14.703125 -0.03125 L 14.203125 0.03125 L 12.890625 0.03125 L 12.15625 -0.296875 L 11.890625 -0.703125 L 11.859375 -6.25 L 11.609375 -6.734375 L 11.125 -7.015625 L 10.671875 -7.015625 L 10.15625 -7.078125 L 7.1875 -7.0625 L 6.65625 -6.734375 L 6.4375 -6.203125 L 6.4375 -1.765625 L 6.484375 -1.203125 L 6.4375 -0.734375 L 6.234375 -0.25 L 5.703125 0.046875 L 4.640625 0.03125 L 4.125 0.078125 L 3.109375 0.03125 L 2.609375 0.046875 L 2.140625 -0.21875 Z M 1.828125 -0.703125 "/></g></g></g><g fill="#556e56" fill-opacity="1"><g transform="translate(19.326806, 24.403669)"><g><path d="M 9.390625 0.296875 L 8.875 0.25 L 7.96875 0.046875 L 7.40625 0 L 6.6875 -0.25 L 4.71875 -1.25 L 3.890625 -1.90625 L 3.625 -2.234375 L 3.234375 -2.59375 L 2.921875 -2.984375 L 2.609375 -3.296875 L 1.453125 -5.578125 L 1.234375 -6.53125 L 1.1875 -7.015625 L 1.0625 -7.46875 L 0.984375 -7.984375 L 1.0625 -10.03125 L 1.484375 -11.953125 L 1.859375 -12.921875 L 2.640625 -14.25 L 3.875 -15.671875 L 4.71875 -16.3125 L 5.171875 -16.53125 L 5.546875 -16.8125 L 7.4375 -17.515625 L 10.09375 -17.890625 L 10.78125 -17.859375 L 12.234375 -17.609375 L 14.171875 -17.015625 L 14.546875 -16.734375 L 15.296875 -16.40625 L 15.875 -16 L 16.609375 -15.375 L 17.3125 -14.59375 L 17.859375 -13.84375 L 18.34375 -12.921875 L 18.96875 -11.03125 L 19.140625 -10 L 19.21875 -8.75 L 19.125 -8.015625 L 19.09375 -7.484375 L 18.96875 -6.984375 L 18.9375 -6.53125 L 18.75 -5.578125 L 18.359375 -4.625 L 17.265625 -2.9375 L 16.90625 -2.59375 L 16.578125 -2.140625 L 15.875 -1.53125 L 15.40625 -1.3125 L 15.03125 -1 L 14.203125 -0.546875 L 12.3125 0.078125 L 10.796875 0.28125 Z M 10.796875 -4.140625 L 11.3125 -4.25 L 11.6875 -4.421875 L 12.140625 -4.546875 L 13.34375 -5.375 L 13.6875 -5.78125 L 13.84375 -6.15625 L 14.125 -6.609375 L 14.296875 -7.0625 L 14.5 -7.984375 L 14.546875 -9.515625 L 14.46875 -9.96875 L 14.25 -10.453125 L 13.9375 -11.40625 L 12.96875 -12.4375 L 12.1875 -12.984375 L 11.734375 -13.1875 L 11.28125 -13.296875 L 10.078125 -13.4375 L 9.375 -13.390625 L 8.390625 -13.140625 L 8.0625 -13.015625 L 6.8125 -12.15625 L 6.203125 -11.359375 L 6.0625 -10.90625 L 5.859375 -10.453125 L 5.78125 -9.96875 L 5.65625 -9.515625 L 5.65625 -7.984375 L 5.859375 -7.0625 L 6.078125 -6.609375 L 6.203125 -6.203125 L 6.5625 -5.734375 L 6.890625 -5.375 L 7.5625 -4.828125 L 7.96875 -4.59375 L 8.875 -4.21875 L 9.421875 -4.140625 Z M 10.796875 -4.140625 "/></g></g></g><g fill="#556e56" fill-opacity="1"><g transform="translate(39.477301, 24.403669)"><g><path d="M 1.8125 -0.734375 L 1.90625 -1.234375 L 1.9375 -1.734375 L 1.890625 -2.71875 L 1.890625 -3.21875 L 1.828125 -3.796875 L 1.90625 -4.25 L 1.890625 -4.71875 L 1.9375 -5.28125 L 1.859375 -5.796875 L 1.90625 -6.8125 L 1.828125 -7.78125 L 1.90625 -8.3125 L 1.90625 -12.8125 L 1.859375 -13.265625 L 1.90625 -13.796875 L 1.8125 -15.078125 L 1.90625 -15.796875 L 1.859375 -16.8125 L 2.109375 -17.359375 L 2.84375 -17.53125 L 6.125 -17.609375 L 6.578125 -17.5625 L 7.5625 -17.59375 L 8.0625 -17.53125 L 9.171875 -17.59375 L 9.671875 -17.515625 L 10.125 -17.5625 L 12.140625 -17.53125 L 12.65625 -17.3125 L 12.921875 -16.8125 L 12.84375 -16.328125 L 12.8125 -15.78125 L 12.890625 -15.296875 L 12.9375 -14.265625 L 12.65625 -13.8125 L 12.140625 -13.546875 L 7.3125 -13.515625 L 6.53125 -13.296875 L 6.28125 -12.5625 L 6.328125 -11.78125 L 6.640625 -11.328125 L 7.0625 -11.0625 L 9.046875 -11.078125 L 9.625 -11.03125 L 10.15625 -11.03125 L 10.65625 -11.078125 L 11.65625 -11.0625 L 12.078125 -10.78125 L 12.3125 -10.296875 L 12.359375 -9.796875 L 12.3125 -7.8125 L 12.0625 -7.34375 L 11.5625 -7.0625 L 11.109375 -7.03125 L 10.578125 -7.078125 L 9.90625 -7.03125 L 8.5625 -7.109375 L 8.0625 -7.0625 L 7.078125 -7.0625 L 6.640625 -6.78125 L 6.40625 -6.25 L 6.375 -5.03125 L 6.609375 -4.25 L 7.140625 -3.9375 L 7.6875 -4 L 8.234375 -3.9375 L 8.71875 -4.015625 L 12.03125 -3.96875 L 12.78125 -3.71875 L 13.109375 -3.21875 L 13.0625 -2.734375 L 13.09375 -1.1875 L 13.046875 -0.703125 L 12.8125 -0.21875 L 12.28125 0.03125 L 11.8125 0.078125 L 10.28125 -0.03125 L 8.75 0.046875 L 8.296875 -0.03125 L 2.609375 0.03125 L 2.140625 -0.25 Z M 1.8125 -0.734375 "/></g></g></g><g fill="#556e56" fill-opacity="1"><g transform="translate(53.874094, 24.403669)"><g><path d="M 7.28125 0.203125 L 6.234375 0.125 L 5.75 -0.046875 L 5.203125 -0.125 L 3.390625 -0.953125 L 2.96875 -1.234375 L 2.234375 -1.953125 L 1.609375 -2.734375 L 1.203125 -3.75 L 1.109375 -4.203125 L 1.0625 -4.75 L 1.234375 -5.28125 L 1.734375 -5.5 L 2.234375 -5.484375 L 2.734375 -5.53125 L 4.640625 -5.484375 L 5.15625 -5.28125 L 5.53125 -4.78125 L 5.90625 -4.421875 L 6.359375 -4.140625 L 6.734375 -3.96875 L 7.3125 -3.8125 L 8.0625 -3.765625 L 8.765625 -3.796875 L 9.703125 -4.0625 L 10.09375 -4.296875 L 10.5 -4.640625 L 10.65625 -5.296875 L 10.53125 -5.953125 L 10.171875 -6.25 L 9.265625 -6.640625 L 8.765625 -6.65625 L 8.3125 -6.734375 L 6.25 -6.890625 L 5.359375 -7.078125 L 3.921875 -7.5625 L 3.046875 -8.09375 L 2.34375 -8.75 L 1.703125 -9.578125 L 1.375 -10.453125 L 1.203125 -11.15625 L 1.1875 -12.84375 L 1.53125 -14.296875 L 1.78125 -14.703125 L 1.953125 -15.15625 L 2.28125 -15.484375 L 2.5625 -15.90625 L 3.015625 -16.203125 L 3.359375 -16.53125 L 3.875 -16.828125 L 4.265625 -16.984375 L 4.671875 -17.234375 L 5.125 -17.40625 L 7.109375 -17.8125 L 8.515625 -17.84375 L 9.0625 -17.71875 L 9.515625 -17.65625 L 10.046875 -17.5625 L 11.4375 -17.078125 L 13.046875 -15.984375 L 13.359375 -15.609375 L 13.625 -15.203125 L 13.9375 -14.796875 L 14.34375 -13.890625 L 14.546875 -12.921875 L 14.328125 -12.4375 L 13.84375 -12.140625 L 13.359375 -12.1875 L 12.921875 -12.140625 L 11.25 -12.1875 L 10.484375 -12.4375 L 9.640625 -13.3125 L 9.265625 -13.625 L 8.71875 -13.8125 L 7.109375 -13.765625 L 6.65625 -13.671875 L 6.3125 -13.515625 L 5.875 -13.1875 L 5.609375 -12.84375 L 5.53125 -12.1875 L 5.546875 -11.5 L 5.953125 -11.109375 L 6.328125 -10.90625 L 7.390625 -10.53125 L 9.921875 -10.203125 L 11.984375 -9.703125 L 13.3125 -9.09375 L 13.75 -8.75 L 14.34375 -7.96875 L 14.84375 -7.03125 L 14.96875 -6.5625 L 15.046875 -6.0625 L 15.03125 -4.5 L 14.953125 -4.046875 L 14.796875 -3.546875 L 14.59375 -3.09375 L 14.09375 -2.28125 L 13.390625 -1.484375 L 12.59375 -0.921875 L 11.28125 -0.21875 L 8.8125 0.25 L 8.015625 0.28125 Z M 7.28125 0.203125 "/></g></g></g><g fill="#556e56" fill-opacity="1"><g transform="translate(69.904035, 24.403669)"><g><path d="M 9.25 0.25 L 8.765625 0.25 L 8.3125 0.15625 L 7.78125 0.09375 L 7.265625 -0.078125 L 6.890625 -0.171875 L 6.375 -0.359375 L 4.671875 -1.28125 L 4.296875 -1.578125 L 3.875 -1.859375 L 2.96875 -2.734375 L 1.953125 -4.203125 L 1.78125 -4.625 L 1.53125 -5.078125 L 1.453125 -5.53125 L 1.25 -6 L 1 -6.984375 L 1 -7.984375 L 0.90625 -8.796875 L 1.359375 -11.9375 L 2.515625 -14.203125 L 2.8125 -14.625 L 3.5 -15.25 L 3.796875 -15.65625 L 5.546875 -16.78125 L 6 -16.953125 L 6.375 -17.1875 L 6.859375 -17.359375 L 7.84375 -17.5625 L 8.3125 -17.71875 L 8.75 -17.765625 L 11.03125 -17.765625 L 12.28125 -17.59375 L 13.265625 -17.3125 L 14.703125 -16.65625 L 15.25 -16.28125 L 16.5625 -15.09375 L 17.484375 -13.8125 L 17.890625 -12.859375 L 17.96875 -12.40625 L 18.171875 -11.90625 L 18.015625 -11.375 L 17.609375 -11.15625 L 17.109375 -11.109375 L 14.578125 -11.15625 L 14.015625 -11.375 L 13.5625 -11.859375 L 13.34375 -12.28125 L 12.96875 -12.6875 L 12.234375 -13.296875 L 11.703125 -13.46875 L 10.75 -13.640625 L 9.203125 -13.6875 L 8.3125 -13.4375 L 7.84375 -13.234375 L 7.015625 -12.640625 L 6.375 -11.859375 L 5.953125 -10.953125 L 5.796875 -10.5 L 5.78125 -10 L 5.609375 -9.546875 L 5.578125 -8.75 L 5.65625 -7.5625 L 5.953125 -6.578125 L 6.15625 -6.15625 L 7.078125 -4.953125 L 7.40625 -4.59375 L 7.890625 -4.375 L 9.25 -3.875 L 10.65625 -3.84375 L 11.1875 -3.890625 L 11.6875 -4.046875 L 12.53125 -4.46875 L 13.484375 -5.5 L 13.6875 -5.921875 L 14.203125 -6.40625 L 14.75 -6.65625 L 17.4375 -6.640625 L 18.0625 -6.359375 L 18.21875 -5.90625 L 18.140625 -5.421875 L 17.96875 -4.921875 L 17.84375 -4.453125 L 17.609375 -4 L 16.859375 -2.6875 L 16.4375 -2.359375 L 16.15625 -1.9375 L 15.828125 -1.609375 L 15.40625 -1.3125 L 14.953125 -1.03125 L 14.578125 -0.78125 L 13.1875 -0.171875 L 10.75 0.328125 Z M 9.25 0.25 "/></g></g></g><g fill="#556e56" fill-opacity="1"><g transform="translate(89.074635, 24.403669)"><g><path d="M 1.90625 -0.703125 L 1.859375 -3.265625 L 1.90625 -3.765625 L 1.828125 -4.21875 L 1.90625 -4.71875 L 1.859375 -5.28125 L 1.9375 -6.453125 L 1.890625 -7.03125 L 1.9375 -7.8125 L 1.859375 -8.296875 L 1.859375 -9.75 L 1.90625 -10.28125 L 1.8125 -11.8125 L 1.90625 -12.3125 L 1.859375 -12.734375 L 1.9375 -13.296875 L 1.8125 -14.796875 L 1.890625 -15.28125 L 1.828125 -15.828125 L 1.828125 -16.3125 L 1.90625 -16.859375 L 2.1875 -17.28125 L 2.96875 -17.515625 L 3.4375 -17.5625 L 3.9375 -17.515625 L 5.421875 -17.5625 L 6.203125 -17.3125 L 6.5 -16.78125 L 6.484375 -16.359375 L 6.5625 -13.875 L 6.5 -13.421875 L 6.5 -11.90625 L 6.703125 -11.4375 L 7.234375 -11.203125 L 9.671875 -11.234375 L 10.125 -11.1875 L 11.125 -11.1875 L 11.5625 -11.4375 L 11.828125 -11.9375 L 11.828125 -13.390625 L 11.9375 -13.8125 L 11.890625 -16.5625 L 12.078125 -17.28125 L 12.84375 -17.515625 L 13.34375 -17.515625 L 14.140625 -17.59375 L 15.421875 -17.5625 L 16.203125 -17.3125 L 16.453125 -16.8125 L 16.5 -16.3125 L 16.40625 -15.796875 L 16.453125 -15.328125 L 16.5625 -14.84375 L 16.4375 -12.765625 L 16.5 -10.296875 L 16.453125 -9.75 L 16.484375 -8.796875 L 16.40625 -8.265625 L 16.40625 -7.765625 L 16.453125 -7.234375 L 16.4375 -6.734375 L 16.53125 -5.78125 L 16.53125 -1.734375 L 16.4375 -0.703125 L 16.15625 -0.21875 L 15.65625 0.046875 L 13.921875 0.046875 L 13.171875 -0.03125 L 12.65625 0.03125 L 12.15625 -0.21875 L 11.90625 -0.75 L 11.828125 -1.734375 L 11.9375 -2.484375 L 11.828125 -4.265625 L 11.90625 -4.75 L 11.828125 -6.28125 L 11.578125 -6.78125 L 11.125 -7.03125 L 10.65625 -7.03125 L 10.15625 -7.078125 L 9.640625 -7.03125 L 8.171875 -7.03125 L 7.71875 -7.078125 L 7.1875 -7.078125 L 6.6875 -6.78125 L 6.4375 -6.25 L 6.5 -4.265625 L 6.453125 -3.75 L 6.484375 -3.1875 L 6.4375 -2.71875 L 6.484375 -2.21875 L 6.4375 -1.765625 L 6.5 -1.203125 L 6.484375 -0.703125 L 6.28125 -0.203125 L 5.734375 0.03125 L 5.203125 0.078125 L 4.671875 0 L 3.9375 -0.03125 L 3.171875 0.046875 L 2.6875 0.046875 L 2.109375 -0.171875 Z M 1.90625 -0.703125 "/></g></g></g><g fill="#556e56" fill-opacity="1"><g transform="translate(107.466351, 24.403669)"><g><path d="M 20.25 -2.890625 L 19.921875 -2.609375 L 19.546875 -2.359375 L 18.796875 -2.015625 L 17.5625 -1.734375 L 16.109375 -1.609375 L 15.625 -1.765625 L 14.78125 -2.15625 L 14.390625 -2.46875 L 13.890625 -2.6875 L 13.296875 -2.53125 L 12.8125 -2.34375 L 11.3125 -1.953125 L 10.453125 -1.859375 L 9.015625 -2.078125 L 8.265625 -2.390625 L 7.015625 -3.1875 L 6.125 -4.5 L 5.984375 -4.921875 L 5.75 -5.359375 L 5.65625 -5.875 L 5.625 -6.328125 L 5.53125 -6.859375 L 5.5 -7.4375 L 5.625 -8.890625 L 5.859375 -9.921875 L 6.234375 -10.828125 L 6.8125 -11.765625 L 7.78125 -12.8125 L 8.1875 -13.140625 L 9.0625 -13.671875 L 9.546875 -13.890625 L 10.921875 -14.34375 L 11.703125 -14.46875 L 13.1875 -14.5 L 14.390625 -14.390625 L 15.34375 -14.171875 L 15.78125 -13.9375 L 16.203125 -13.84375 L 16.703125 -13.671875 L 17.15625 -13.390625 L 17.53125 -13.1875 L 17.921875 -12.609375 L 18.0625 -11.984375 L 17.96875 -10.625 L 17.859375 -10.046875 L 17.5625 -5.09375 L 18.0625 -4.703125 L 18.765625 -4.828125 L 19.140625 -5.15625 L 19.875 -6.53125 L 20.03125 -7.015625 L 20.125 -7.515625 L 20.328125 -9.515625 L 20.21875 -10.609375 L 19.90625 -12.03125 L 19.578125 -13.015625 L 19.015625 -13.84375 L 18.046875 -14.953125 L 17.609375 -15.203125 L 17.203125 -15.546875 L 15.328125 -16.25 L 14.265625 -16.5 L 11.765625 -16.53125 L 11.28125 -16.453125 L 10.828125 -16.4375 L 9.828125 -16.15625 L 8.421875 -15.609375 L 7.984375 -15.296875 L 7.53125 -15.125 L 6.703125 -14.515625 L 5.359375 -13.0625 L 5.03125 -12.609375 L 4.71875 -12.28125 L 4.328125 -11.3125 L 4.0625 -10.859375 L 3.5 -8.921875 L 3.296875 -7.40625 L 3.34375 -6.890625 L 3.3125 -6.4375 L 3.359375 -5.984375 L 3.515625 -5.453125 L 3.6875 -4.421875 L 3.875 -3.9375 L 4.125 -3.546875 L 4.34375 -3.109375 L 4.640625 -2.65625 L 4.921875 -2.34375 L 5.28125 -1.984375 L 5.625 -1.578125 L 6.4375 -1.03125 L 6.859375 -0.796875 L 7.78125 -0.40625 L 9.75 -0.15625 L 11.703125 -0.28125 L 12.234375 -0.484375 L 12.71875 -0.546875 L 13.21875 -0.328125 L 13.390625 0.03125 L 13.34375 0.609375 L 13.015625 1.1875 L 12.46875 1.609375 L 11.5 1.828125 L 8.9375 1.984375 L 8.390625 1.890625 L 7.9375 1.890625 L 7.4375 1.703125 L 6.484375 1.5 L 5.046875 0.828125 L 4.5 0.484375 L 3.46875 -0.40625 L 2.515625 -1.5625 L 2.03125 -2.40625 L 1.484375 -3.875 L 1.1875 -5.359375 L 1.078125 -6.9375 L 1.203125 -8.96875 L 1.703125 -10.953125 L 2.078125 -11.90625 L 2.3125 -12.3125 L 2.5625 -12.84375 L 3.640625 -14.453125 L 4 -14.875 L 4.296875 -15.296875 L 4.671875 -15.671875 L 6.328125 -16.9375 L 8.96875 -18.296875 L 9.515625 -18.421875 L 10.03125 -18.46875 L 11.484375 -18.765625 L 13.546875 -18.875 L 14.515625 -18.796875 L 16.9375 -18.140625 L 18.265625 -17.53125 L 19.515625 -16.6875 L 19.90625 -16.328125 L 20.90625 -15.203125 L 21.4375 -14.390625 L 22.015625 -12.984375 L 22.234375 -12.015625 L 22.390625 -11.578125 L 22.53125 -10.03125 L 22.53125 -9.0625 L 22.1875 -6.5625 L 22.0625 -6 L 21.625 -4.796875 L 21.25 -4.203125 L 21.03125 -3.8125 L 20.65625 -3.3125 Z M 12.34375 -5.828125 L 12.765625 -6.109375 L 13.09375 -6.5 L 13.34375 -6.9375 L 13.6875 -8.96875 L 13.71875 -10 L 13.5625 -10.609375 L 13.0625 -11 L 12.359375 -11.0625 L 11.65625 -10.953125 L 10.828125 -10.421875 L 10.5 -10.09375 L 10.25 -9.75 L 10.03125 -9.328125 L 9.875 -8.890625 L 9.78125 -8.1875 L 9.75 -7.4375 L 9.84375 -6.890625 L 10.03125 -6.40625 L 10.328125 -6.03125 L 10.78125 -5.796875 L 11.5625 -5.734375 Z M 12.34375 -5.828125 "/></g></g></g><g fill="#556e56" fill-opacity="1"><g transform="translate(130.958505, 24.403669)"><g><path d="M 1.828125 -0.703125 L 1.90625 -2.765625 L 1.828125 -3.21875 L 1.828125 -10.734375 L 1.890625 -11.234375 L 1.859375 -11.828125 L 1.90625 -12.78125 L 1.8125 -13.8125 L 1.859375 -14.328125 L 1.8125 -16.28125 L 1.859375 -16.828125 L 2.109375 -17.34375 L 2.65625 -17.59375 L 5.15625 -17.53125 L 5.703125 -17.59375 L 6.234375 -17.3125 L 6.453125 -16.828125 L 6.5 -15.90625 L 6.453125 -15.34375 L 6.4375 -13.390625 L 6.453125 -12.9375 L 6.453125 -12.40625 L 6.484375 -11.859375 L 6.734375 -11.375 L 7.203125 -11.15625 L 8.6875 -11.125 L 9.140625 -11.1875 L 9.671875 -11.125 L 10.65625 -11.234375 L 11.125 -11.15625 L 11.640625 -11.4375 L 11.90625 -11.9375 L 11.9375 -13.890625 L 11.859375 -14.375 L 11.90625 -15.40625 L 11.859375 -15.828125 L 11.890625 -16.78125 L 12.140625 -17.390625 L 12.859375 -17.5625 L 15.75 -17.53125 L 16.25 -17.34375 L 16.484375 -16.8125 L 16.453125 -4.203125 L 16.53125 -3.796875 L 16.453125 -2.984375 L 16.5 -0.703125 L 16.203125 -0.28125 L 15.734375 0.046875 L 14.703125 -0.03125 L 14.203125 0.03125 L 12.890625 0.03125 L 12.15625 -0.296875 L 11.890625 -0.703125 L 11.859375 -6.25 L 11.609375 -6.734375 L 11.125 -7.015625 L 10.671875 -7.015625 L 10.15625 -7.078125 L 7.1875 -7.0625 L 6.65625 -6.734375 L 6.4375 -6.203125 L 6.4375 -1.765625 L 6.484375 -1.203125 L 6.4375 -0.734375 L 6.234375 -0.25 L 5.703125 0.046875 L 4.640625 0.03125 L 4.125 0.078125 L 3.109375 0.03125 L 2.609375 0.046875 L 2.140625 -0.21875 Z M 1.828125 -0.703125 "/></g></g></g><g fill="#556e56" fill-opacity="1"><g transform="translate(149.350221, 24.403669)"><g><path d="M 9.390625 0.296875 L 8.875 0.25 L 7.96875 0.046875 L 7.40625 0 L 6.6875 -0.25 L 4.71875 -1.25 L 3.890625 -1.90625 L 3.625 -2.234375 L 3.234375 -2.59375 L 2.921875 -2.984375 L 2.609375 -3.296875 L 1.453125 -5.578125 L 1.234375 -6.53125 L 1.1875 -7.015625 L 1.0625 -7.46875 L 0.984375 -7.984375 L 1.0625 -10.03125 L 1.484375 -11.953125 L 1.859375 -12.921875 L 2.640625 -14.25 L 3.875 -15.671875 L 4.71875 -16.3125 L 5.171875 -16.53125 L 5.546875 -16.8125 L 7.4375 -17.515625 L 10.09375 -17.890625 L 10.78125 -17.859375 L 12.234375 -17.609375 L 14.171875 -17.015625 L 14.546875 -16.734375 L 15.296875 -16.40625 L 15.875 -16 L 16.609375 -15.375 L 17.3125 -14.59375 L 17.859375 -13.84375 L 18.34375 -12.921875 L 18.96875 -11.03125 L 19.140625 -10 L 19.21875 -8.75 L 19.125 -8.015625 L 19.09375 -7.484375 L 18.96875 -6.984375 L 18.9375 -6.53125 L 18.75 -5.578125 L 18.359375 -4.625 L 17.265625 -2.9375 L 16.90625 -2.59375 L 16.578125 -2.140625 L 15.875 -1.53125 L 15.40625 -1.3125 L 15.03125 -1 L 14.203125 -0.546875 L 12.3125 0.078125 L 10.796875 0.28125 Z M 10.796875 -4.140625 L 11.3125 -4.25 L 11.6875 -4.421875 L 12.140625 -4.546875 L 13.34375 -5.375 L 13.6875 -5.78125 L 13.84375 -6.15625 L 14.125 -6.609375 L 14.296875 -7.0625 L 14.5 -7.984375 L 14.546875 -9.515625 L 14.46875 -9.96875 L 14.25 -10.453125 L 13.9375 -11.40625 L 12.96875 -12.4375 L 12.1875 -12.984375 L 11.734375 -13.1875 L 11.28125 -13.296875 L 10.078125 -13.4375 L 9.375 -13.390625 L 8.390625 -13.140625 L 8.0625 -13.015625 L 6.8125 -12.15625 L 6.203125 -11.359375 L 6.0625 -10.90625 L 5.859375 -10.453125 L 5.78125 -9.96875 L 5.65625 -9.515625 L 5.65625 -7.984375 L 5.859375 -7.0625 L 6.078125 -6.609375 L 6.203125 -6.203125 L 6.5625 -5.734375 L 6.890625 -5.375 L 7.5625 -4.828125 L 7.96875 -4.59375 L 8.875 -4.21875 L 9.421875 -4.140625 Z M 10.796875 -4.140625 "/></g></g></g><g fill="#556e56" fill-opacity="1"><g transform="translate(169.500707, 24.403669)"><g><path d="M 1.859375 -0.734375 L 1.90625 -1.203125 L 1.8125 -4.78125 L 1.90625 -5.25 L 1.828125 -16.328125 L 1.890625 -16.859375 L 2.15625 -17.359375 L 2.65625 -17.640625 L 3.390625 -17.4375 L 4.125 -16.90625 L 4.671875 -16.328125 L 4.953125 -15.984375 L 5.296875 -15.65625 L 5.578125 -15.28125 L 5.90625 -14.921875 L 6.328125 -14.546875 L 6.9375 -13.796875 L 8.671875 -12.015625 L 8.96875 -11.609375 L 9.375 -11.28125 L 9.671875 -10.859375 L 10 -10.53125 L 10.453125 -10.375 L 11 -10.546875 L 14.71875 -14.5 L 14.953125 -14.875 L 16.375 -16.359375 L 16.953125 -17.0625 L 17.59375 -17.40625 L 18.34375 -17.640625 L 18.84375 -17.34375 L 19.125 -16.859375 L 19.09375 -16.328125 L 19.140625 -15.90625 L 19.09375 -15.375 L 19.171875 -8.265625 L 19.09375 -7.8125 L 19.140625 -7.3125 L 19.09375 -6.78125 L 19.125 -6.28125 L 19.046875 -5.78125 L 19.09375 -4.796875 L 19.046875 -4.328125 L 19.140625 -1.3125 L 19.0625 -0.796875 L 18.796875 -0.28125 L 18.3125 0.03125 L 15.296875 0 L 14.75 -0.203125 L 14.5 -0.734375 L 14.578125 -4.203125 L 14.5 -5.125 L 14.515625 -5.625 L 14.5 -6.078125 L 14.578125 -6.5625 L 14.5 -7.0625 L 14.296875 -7.359375 L 14 -7.3125 L 13.640625 -6.953125 L 13.3125 -6.53125 L 11.203125 -4.390625 L 10.78125 -4.09375 L 10.203125 -4.09375 L 9.375 -4.78125 L 9.046875 -5.203125 L 7.640625 -6.53125 L 7.015625 -7.3125 L 6.640625 -7.40625 L 6.40625 -7.0625 L 6.5 -5.609375 L 6.4375 -2.21875 L 6.5 -1.6875 L 6.53125 -1.15625 L 6.484375 -0.671875 L 6.203125 -0.28125 L 5.453125 -0.046875 L 2.6875 0 L 2.078125 -0.28125 Z M 1.859375 -0.734375 "/></g></g></g><g fill="#556e56" fill-opacity="1"><g transform="translate(190.505466, 24.403669)"><g><path d="M 1.8125 -0.734375 L 1.90625 -1.234375 L 1.9375 -1.734375 L 1.890625 -2.71875 L 1.890625 -3.21875 L 1.828125 -3.796875 L 1.90625 -4.25 L 1.890625 -4.71875 L 1.9375 -5.28125 L 1.859375 -5.796875 L 1.90625 -6.8125 L 1.828125 -7.78125 L 1.90625 -8.3125 L 1.90625 -12.8125 L 1.859375 -13.265625 L 1.90625 -13.796875 L 1.8125 -15.078125 L 1.90625 -15.796875 L 1.859375 -16.8125 L 2.109375 -17.359375 L 2.84375 -17.53125 L 6.125 -17.609375 L 6.578125 -17.5625 L 7.5625 -17.59375 L 8.0625 -17.53125 L 9.171875 -17.59375 L 9.671875 -17.515625 L 10.125 -17.5625 L 12.140625 -17.53125 L 12.65625 -17.3125 L 12.921875 -16.8125 L 12.84375 -16.328125 L 12.8125 -15.78125 L 12.890625 -15.296875 L 12.9375 -14.265625 L 12.65625 -13.8125 L 12.140625 -13.546875 L 7.3125 -13.515625 L 6.53125 -13.296875 L 6.28125 -12.5625 L 6.328125 -11.78125 L 6.640625 -11.328125 L 7.0625 -11.0625 L 9.046875 -11.078125 L 9.625 -11.03125 L 10.15625 -11.03125 L 10.65625 -11.078125 L 11.65625 -11.0625 L 12.078125 -10.78125 L 12.3125 -10.296875 L 12.359375 -9.796875 L 12.3125 -7.8125 L 12.0625 -7.34375 L 11.5625 -7.0625 L 11.109375 -7.03125 L 10.578125 -7.078125 L 9.90625 -7.03125 L 8.5625 -7.109375 L 8.0625 -7.0625 L 7.078125 -7.0625 L 6.640625 -6.78125 L 6.40625 -6.25 L 6.375 -5.03125 L 6.609375 -4.25 L 7.140625 -3.9375 L 7.6875 -4 L 8.234375 -3.9375 L 8.71875 -4.015625 L 12.03125 -3.96875 L 12.78125 -3.71875 L 13.109375 -3.21875 L 13.0625 -2.734375 L 13.09375 -1.1875 L 13.046875 -0.703125 L 12.8125 -0.21875 L 12.28125 0.03125 L 11.8125 0.078125 L 10.28125 -0.03125 L 8.75 0.046875 L 8.296875 -0.03125 L 2.609375 0.03125 L 2.140625 -0.25 Z M 1.8125 -0.734375 "/></g></g></g></g></g></svg>